<?xml version="1.0" standalone="no"?><!DOCTYPE svg PUBLIC "-//W3C//DTD SVG 1.1//EN" "http://www.w3.org/Graphics/SVG/1.1/DTD/svg11.dtd"><svg t="1572580891925" class="icon" viewBox="0 0 1024 1024" version="1.1" xmlns="http://www.w3.org/2000/svg" p-id="1116" xmlns:xlink="http://www.w3.org/1999/xlink" width="200" height="200"><defs><style type="text/css"></style></defs><path d="M0 896A4 4 1440 1 0 256 896 4 4 1440 1 0 0 896zM192 0l0 128c388.736 0 704 315.232 704 704l128 0C1024 372.544 651.424 0 192 0zM192.736 256.256C192.48 256.256 192.256 256.288 192 256.288l0 128c0.256 0 0.48-0.032 0.736-0.032 247.328 0 447.872 200.48 448 447.744l128 0C768.608 514.016 510.752 256.256 192.736 256.256zM192.736 512.256c-0.256 0-0.48 0.032-0.736 0.032l0 128c0.256 0 0.48-0.032 0.736-0.032 105.952 0 191.872 85.856 192 191.744l128 0C512.608 655.392 369.376 512.256 192.736 512.256z" p-id="1117"></path></svg>